<svg xmlns="http://www.w3.org/2000/svg" width="512" height="512" fill="none" viewBox="0 0 512 512" id="project-list"><path fill="#EA047E" d="M188.421 373.409C183.981 386.379 179.541 399.339 175.101 412.309C174.471 414.139 173.781 416.069 172.251 417.259C170.771 418.409 168.801 418.649 166.931 418.839C159.001 419.649 151.071 420.449 143.141 421.259C149.521 404.799 155.911 388.339 162.291 371.879L172.411 342.999C175.561 333.899 178.701 324.809 181.851 315.709L190.911 293.859L293.881 298.949L306.861 322.449C308.671 328.439 310.481 334.419 312.291 340.409L322.701 370.399C324.541 389.889 329.881 409.049 338.371 426.689C326.341 426.089 304.941 425.159 303.451 425.019L301.681 424.849C297.841 407.099 295.771 389.509 291.931 371.759L284.971 339.859C282.231 333.549 279.481 327.239 276.741 320.929L272.971 309.649L214.351 306.449L209.821 321.109C206.941 327.739 204.071 334.359 201.191 340.989L188.421 373.409Z"></path><path fill="#00F5FF" d="M423.59 308.629C312.79 325.819 202.12 322.459 91.4298 303.829C82.4198 236.679 79.9098 168.649 83.9398 101.019L92.5298 98.4994C199.68 80.5794 309.86 80.9094 416.9 99.4594C428.85 164.299 429.78 242.189 423.59 308.629Z"></path><path fill="#FCE700" d="M354.159 364.45C354.459 356.78 353.189 349.12 353.489 341.45C285.109 339.18 216.609 340.6 148.389 345.69L143.369 346.72C144.419 354.9 145.469 363.08 146.519 371.25C217.869 370.31 282.849 369.66 354.199 368.71L354.159 364.45Z"></path><path fill="#EA047E" d="M143.679 120.88L138.839 120.27C135.799 120.57 132.789 121.97 130.939 124.4 129.089 126.83 128.569 130.33 130.009 133.03 131.089 135.04 133.109 136.43 135.279 137.12 138.279 138.07 141.709 137.76 144.379 136.09 147.049 134.41 148.839 131.34 148.759 128.19 148.689 125.03 146.639 121.96 143.679 120.88zM143.679 170.21L138.839 169.6C135.799 169.9 132.789 171.3 130.939 173.73 129.089 176.16 128.569 179.66 130.009 182.36 131.089 184.37 133.109 185.76 135.279 186.45 138.279 187.4 141.709 187.09 144.379 185.42 147.049 183.75 148.839 180.67 148.759 177.52 148.689 174.36 146.639 171.29 143.679 170.21zM143.679 219.549L138.839 218.939C135.799 219.239 132.789 220.639 130.939 223.069 129.089 225.499 128.569 228.999 130.009 231.699 131.089 233.709 133.109 235.099 135.279 235.789 138.279 236.739 141.709 236.429 144.379 234.759 147.049 233.079 148.839 230.009 148.759 226.859 148.689 223.699 146.639 220.629 143.679 219.549zM143.679 268.889L138.839 268.279C135.799 268.579 132.789 269.979 130.939 272.409 129.089 274.839 128.569 278.339 130.009 281.039 131.089 283.049 133.109 284.439 135.279 285.129 138.279 286.079 141.709 285.769 144.379 284.099 147.049 282.429 148.839 279.349 148.759 276.199 148.689 273.039 146.639 269.969 143.679 268.889zM288.779 120.88L283.939 120.27C280.899 120.57 277.889 121.97 276.039 124.4 274.189 126.83 273.669 130.33 275.109 133.03 276.189 135.04 278.209 136.43 280.379 137.12 283.379 138.07 286.809 137.76 289.479 136.09 292.149 134.41 293.939 131.34 293.859 128.19 293.789 125.03 291.739 121.96 288.779 120.88zM288.779 170.21L283.939 169.6C280.899 169.9 277.889 171.3 276.039 173.73 274.189 176.16 273.669 179.66 275.109 182.36 276.189 184.37 278.209 185.76 280.379 186.45 283.379 187.4 286.809 187.09 289.479 185.42 292.149 183.75 293.939 180.67 293.859 177.52 293.779 174.37 291.739 171.29 288.779 170.21zM288.779 219.549L283.939 218.939C280.899 219.239 277.889 220.639 276.039 223.069 274.189 225.499 273.669 228.999 275.109 231.699 276.189 233.709 278.209 235.099 280.379 235.789 283.379 236.739 286.809 236.429 289.479 234.759 292.149 233.079 293.939 230.009 293.859 226.859 293.789 223.699 291.739 220.629 288.779 219.549zM288.779 268.889L283.939 268.279C280.899 268.579 277.889 269.979 276.039 272.409 274.189 274.839 273.669 278.339 275.109 281.039 276.189 283.049 278.209 284.439 280.379 285.129 283.379 286.079 286.809 285.769 289.479 284.099 292.149 282.429 293.939 279.349 293.859 276.199 293.789 273.039 291.739 269.969 288.779 268.889z"></path><path fill="#000" d="M81.6906 101.019C80.1306 127.349 79.5406 153.729 79.9506 180.099C80.3606 206.579 81.7706 233.049 84.1806 259.429C85.5306 274.259 87.2006 289.059 89.1806 303.819C89.3006 304.729 89.7906 305.809 90.8306 305.989C134.741 313.369 179.051 318.449 223.521 320.719C267.771 322.979 312.171 322.449 356.331 318.829C381.171 316.789 405.921 313.779 430.521 309.799C433.371 309.339 432.161 304.999 429.321 305.459C385.811 312.499 341.811 316.399 297.751 317.349C253.881 318.289 209.971 316.309 166.331 311.789C141.461 309.209 116.691 305.799 92.0306 301.659C92.5806 302.379 93.1306 303.109 93.6806 303.829C90.1806 277.689 87.6506 251.419 86.1106 225.089C84.5706 198.649 84.0206 172.149 84.4706 145.659C84.7206 130.769 85.3006 115.889 86.1806 101.019C86.3606 98.1292 81.8606 98.1392 81.6906 101.019Z"></path><path fill="#000" d="M93.1203 100.671C134.94 93.6907 177.21 89.5007 219.58 88.0907C261.72 86.6907 303.95 88.0307 345.92 92.1207C369.49 94.4207 392.96 97.5907 416.3 101.631C415.78 101.111 415.25 100.581 414.73 100.061C419.55 126.271 422.79 152.741 424.56 179.331C426.34 206.091 426.64 232.951 425.52 259.741C424.89 274.731 423.81 289.691 422.3 304.621C422.01 307.501 426.51 307.481 426.8 304.621C429.51 277.901 430.82 251.051 430.67 224.191C430.52 197.271 428.92 170.361 425.79 143.621C424.03 128.631 421.8 113.701 419.07 98.8607C418.94 98.1607 418.2 97.4107 417.5 97.2907C375.54 90.0307 333.11 85.5207 290.56 83.8207C248 82.1207 205.33 83.2307 162.91 87.1307C139.15 89.3207 115.46 92.3907 91.9203 96.3207C89.0803 96.8007 90.2903 101.141 93.1203 100.671Z"></path><path fill="#000" d="M138.84 118.02C134.58 118.49 130.29 120.52 128.23 124.47 126.13 128.49 126.6 133.61 130.1 136.7 133.44 139.66 138.39 140.65 142.64 139.32 146.72 138.04 150.1 134.58 150.83 130.29 151.67 125.32 148.98 120.53 144.28 118.71 143.15 118.27 141.81 119.19 141.51 120.28 141.16 121.55 141.94 122.61 143.08 123.05 145.25 123.89 146.61 126.43 146.51 128.74 146.4 131.23 144.58 133.67 142.17 134.73 139.55 135.89 136.33 135.55 133.96 134.03 131.59 132.52 130.95 129.93 131.83 127.4 132.82 124.53 136.04 122.83 138.84 122.52 140.05 122.39 141.09 121.58 141.09 120.27 141.09 119.15 140.05 117.88 138.84 118.02zM138.84 167.36C134.58 167.83 130.29 169.86 128.23 173.81 126.13 177.83 126.6 182.95 130.1 186.04 133.44 189 138.39 189.99 142.64 188.66 146.72 187.38 150.1 183.92 150.83 179.63 151.67 174.66 148.98 169.87 144.28 168.05 143.15 167.61 141.81 168.53 141.51 169.62 141.16 170.89 141.94 171.95 143.08 172.39 145.25 173.23 146.61 175.77 146.51 178.08 146.4 180.57 144.58 183.01 142.17 184.07 139.55 185.23 136.33 184.89 133.96 183.37 131.59 181.86 130.95 179.27 131.83 176.74 132.82 173.87 136.04 172.17 138.84 171.86 140.05 171.73 141.09 170.92 141.09 169.61 141.09 168.49 140.05 167.22 138.84 167.36zM138.84 216.691C134.58 217.161 130.29 219.191 128.23 223.141 126.13 227.161 126.6 232.281 130.1 235.371 133.44 238.331 138.39 239.321 142.64 237.991 146.72 236.711 150.1 233.251 150.83 228.961 151.67 223.991 148.98 219.201 144.28 217.381 143.15 216.941 141.81 217.861 141.51 218.951 141.16 220.221 141.94 221.281 143.08 221.721 145.25 222.561 146.61 225.101 146.51 227.411 146.4 229.901 144.58 232.341 142.17 233.401 139.55 234.561 136.33 234.221 133.96 232.701 131.59 231.191 130.95 228.601 131.83 226.071 132.82 223.201 136.04 221.501 138.84 221.191 140.05 221.061 141.09 220.251 141.09 218.941 141.09 217.831 140.05 216.561 138.84 216.691zM138.84 266.031C134.58 266.501 130.29 268.531 128.23 272.481 126.13 276.501 126.6 281.621 130.1 284.711 133.44 287.671 138.39 288.661 142.64 287.331 146.72 286.051 150.1 282.591 150.83 278.301 151.67 273.331 148.98 268.541 144.28 266.721 143.15 266.281 141.81 267.201 141.51 268.291 141.16 269.561 141.94 270.621 143.08 271.061 145.25 271.901 146.61 274.441 146.51 276.751 146.4 279.241 144.58 281.681 142.17 282.741 139.55 283.901 136.33 283.561 133.96 282.041 131.59 280.531 130.95 277.941 131.83 275.411 132.82 272.541 136.04 270.841 138.84 270.531 140.05 270.401 141.09 269.591 141.09 268.281 141.09 267.171 140.05 265.901 138.84 266.031zM283.939 118.02C279.679 118.49 275.389 120.52 273.329 124.47 271.229 128.49 271.699 133.61 275.199 136.7 278.539 139.66 283.489 140.65 287.739 139.32 291.819 138.04 295.199 134.58 295.929 130.29 296.769 125.32 294.079 120.53 289.379 118.71 288.249 118.27 286.909 119.19 286.609 120.28 286.259 121.55 287.039 122.61 288.179 123.05 290.349 123.89 291.709 126.43 291.609 128.74 291.499 131.23 289.679 133.67 287.269 134.73 284.649 135.89 281.429 135.55 279.059 134.03 276.689 132.52 276.049 129.93 276.929 127.4 277.919 124.53 281.139 122.83 283.939 122.52 285.149 122.39 286.189 121.58 286.189 120.27 286.189 119.15 285.159 117.88 283.939 118.02zM283.939 167.36C279.679 167.83 275.389 169.86 273.329 173.81 271.229 177.83 271.699 182.95 275.199 186.04 278.539 189 283.489 189.99 287.739 188.66 291.819 187.38 295.199 183.92 295.929 179.63 296.769 174.66 294.079 169.87 289.379 168.05 288.249 167.61 286.909 168.53 286.609 169.62 286.259 170.89 287.039 171.95 288.179 172.39 290.349 173.23 291.709 175.77 291.609 178.08 291.499 180.57 289.679 183.01 287.269 184.07 284.649 185.23 281.429 184.89 279.059 183.37 276.689 181.86 276.049 179.27 276.929 176.74 277.919 173.87 281.139 172.17 283.939 171.86 285.149 171.73 286.189 170.92 286.189 169.61 286.189 168.49 285.159 167.22 283.939 167.36zM283.939 216.691C279.679 217.161 275.389 219.191 273.329 223.141 271.229 227.161 271.699 232.281 275.199 235.371 278.539 238.331 283.489 239.321 287.739 237.991 291.819 236.711 295.199 233.251 295.929 228.961 296.769 223.991 294.079 219.201 289.379 217.381 288.249 216.941 286.909 217.861 286.609 218.951 286.259 220.221 287.039 221.281 288.179 221.721 290.349 222.561 291.709 225.101 291.609 227.411 291.499 229.901 289.679 232.341 287.269 233.401 284.649 234.561 281.429 234.221 279.059 232.701 276.689 231.191 276.049 228.601 276.929 226.071 277.919 223.201 281.139 221.501 283.939 221.191 285.149 221.061 286.189 220.251 286.189 218.941 286.189 217.831 285.159 216.561 283.939 216.691zM283.939 266.031C279.679 266.501 275.389 268.531 273.329 272.481 271.229 276.501 271.699 281.621 275.199 284.711 278.539 287.671 283.489 288.661 287.739 287.331 291.819 286.051 295.199 282.591 295.929 278.301 296.769 273.331 294.079 268.541 289.379 266.721 288.249 266.281 286.909 267.201 286.609 268.291 286.259 269.561 287.039 270.621 288.179 271.061 290.349 271.901 291.709 274.441 291.609 276.751 291.499 279.241 289.679 281.681 287.269 282.741 284.649 283.901 281.429 283.561 279.059 282.041 276.689 280.531 276.049 277.941 276.929 275.411 277.919 272.541 281.139 270.841 283.939 270.531 285.149 270.401 286.189 269.591 286.189 268.281 286.189 267.171 285.159 265.901 283.939 266.031zM160.961 132.84C183.611 129.96 206.451 128.74 229.281 129.2 235.681 129.33 242.081 129.6 248.471 129.99 251.361 130.17 251.351 125.67 248.471 125.49 225.691 124.09 202.811 124.36 180.061 126.3 173.681 126.85 167.311 127.53 160.961 128.34 159.751 128.49 158.711 129.26 158.711 130.59 158.711 131.69 159.741 132.99 160.961 132.84zM160.361 177.37C181.601 177.06 202.841 176.76 224.081 176.45 230.051 176.36 236.031 176.28 242.001 176.19 244.891 176.15 244.901 171.65 242.001 171.69 220.761 172 199.521 172.3 178.281 172.61 172.311 172.7 166.331 172.78 160.361 172.87 157.471 172.92 157.461 177.42 160.361 177.37zM159.79 194.76C172.71 194.7 185.63 194.64 198.55 194.58 201.44 194.57 201.45 190.07 198.55 190.08 185.63 190.14 172.71 190.2 159.79 190.26 156.89 190.27 156.89 194.77 159.79 194.76zM159.2 225.029C181.47 224.989 203.74 224.939 226.01 224.899 232.32 224.889 238.64 224.879 244.95 224.859 247.85 224.849 247.85 220.349 244.95 220.359 222.68 220.399 200.41 220.449 178.14 220.489 171.83 220.499 165.51 220.509 159.2 220.529 156.3 220.539 156.3 225.039 159.2 225.029zM159.791 242.539C172.911 243.269 186.031 243.989 199.151 244.719 202.041 244.879 202.031 240.379 199.151 240.219 186.031 239.489 172.911 238.769 159.791 238.039 156.901 237.879 156.911 242.379 159.791 242.539zM160.38 279.711C179.57 279.811 198.75 279.911 217.94 280.021 220.84 280.041 220.84 275.541 217.94 275.521 198.75 275.421 179.57 275.321 160.38 275.211 157.48 275.201 157.48 279.701 160.38 279.711zM303.679 274.619C322.449 274.659 341.209 274.699 359.979 274.739 365.289 274.749 370.609 274.759 375.919 274.769 378.819 274.779 378.819 270.279 375.919 270.269 357.149 270.229 338.389 270.189 319.619 270.149 314.309 270.139 308.989 270.129 303.679 270.119 300.789 270.109 300.779 274.609 303.679 274.619zM303.09 229.751C324.97 227.351 347.04 226.811 369.01 228.171 375.24 228.561 381.46 229.101 387.66 229.781 388.87 229.911 389.91 228.651 389.91 227.531 389.91 226.201 388.87 225.411 387.66 225.281 365.78 222.861 343.71 222.311 321.74 223.651 315.51 224.031 309.29 224.571 303.09 225.251 301.88 225.381 300.84 226.191 300.84 227.501 300.84 228.621 301.88 229.891 303.09 229.751zM305.45 196.109C316.8 196.059 328.16 195.999 339.51 195.949 342.4 195.939 342.41 191.439 339.51 191.449 328.16 191.499 316.8 191.559 305.45 191.609 302.55 191.629 302.54 196.129 305.45 196.109zM305.45 176.16C327.91 176.18 350.37 176.2 372.82 176.22 379.14 176.23 385.46 176.23 391.78 176.24 394.68 176.24 394.68 171.74 391.78 171.74 369.32 171.72 346.86 171.7 324.41 171.68 318.09 171.67 311.77 171.67 305.45 171.66 302.55 171.66 302.54 176.16 305.45 176.16zM305.45 145.599C316.8 145.549 328.16 145.489 339.51 145.439 342.4 145.429 342.41 140.929 339.51 140.939 328.16 140.989 316.8 141.049 305.45 141.099 302.55 141.119 302.54 145.619 305.45 145.599zM305.45 125.65C327.91 125.67 350.37 125.69 372.82 125.71 379.14 125.72 385.46 125.72 391.78 125.73 394.68 125.73 394.68 121.23 391.78 121.23 369.32 121.21 346.86 121.19 324.41 121.17 318.09 121.16 311.77 121.16 305.45 121.15 302.55 121.15 302.54 125.65 305.45 125.65zM141.119 346.721C142.169 354.901 143.219 363.081 144.269 371.251 144.419 372.441 145.179 373.521 146.519 373.501 173.739 373.141 200.959 372.811 228.179 372.491 254.819 372.181 281.449 371.871 308.089 371.551 323.459 371.361 338.839 371.171 354.209 370.971 357.099 370.931 357.109 366.431 354.209 366.471 326.989 366.831 299.769 367.161 272.549 367.481 245.909 367.791 219.279 368.101 192.639 368.421 177.269 368.611 161.889 368.801 146.519 369.001 147.269 369.751 148.019 370.501 148.769 371.251 147.719 363.071 146.669 354.891 145.619 346.721 145.469 345.511 144.699 344.471 143.369 344.471 142.279 344.471 140.969 345.511 141.119 346.721z"></path><path fill="#000" d="M148.391 347.941C174.991 345.961 201.621 344.531 228.281 343.661C254.941 342.791 281.611 342.481 308.281 342.731C323.351 342.871 338.431 343.191 353.491 343.691C352.741 342.941 351.991 342.191 351.241 341.441C350.971 349.121 352.181 356.761 351.911 364.441C351.811 367.341 356.311 367.331 356.411 364.441C356.681 356.761 355.471 349.121 355.741 341.441C355.781 340.201 354.671 339.231 353.491 339.191C326.831 338.311 300.161 337.981 273.491 338.221C246.821 338.461 220.161 339.251 193.521 340.601C178.471 341.371 163.421 342.31 148.391 343.43C147.181 343.52 146.141 344.4 146.141 345.68C146.141 346.84 147.171 348.031 148.391 347.941Z"></path><path fill="#000" d="M174.581 343.591C177.731 334.491 180.871 325.401 184.021 316.301 184.971 313.561 180.621 312.381 179.681 315.101 176.531 324.201 173.391 333.291 170.241 342.391 169.291 345.141 173.631 346.321 174.581 343.591zM203.151 342.119C206.031 335.489 208.901 328.869 211.781 322.239 212.261 321.129 212.111 319.829 210.971 319.159 210.021 318.599 208.381 318.849 207.891 319.969 205.011 326.599 202.141 333.219 199.261 339.849 198.781 340.959 198.931 342.259 200.071 342.929 201.021 343.479 202.661 343.239 203.151 342.119zM160.121 371.27C153.741 387.73 147.351 404.19 140.971 420.65 140.471 421.93 141.771 423.64 143.141 423.5 148.431 422.96 153.711 422.42 159.001 421.89 161.641 421.62 164.291 421.36 166.931 421.08 169.291 420.83 171.681 420.52 173.611 419.02 175.411 417.62 176.331 415.55 177.071 413.46 177.931 411.02 178.751 408.56 179.591 406.11 181.301 401.11 183.011 396.11 184.731 391.11 186.681 385.41 188.641 379.71 190.591 374 191.531 371.25 187.191 370.08 186.251 372.8 183.011 382.25 179.771 391.7 176.541 401.15 175.741 403.49 174.931 405.84 174.131 408.18 173.451 410.17 172.931 412.37 171.881 414.21 170.931 415.87 169.341 416.29 167.531 416.5 165.021 416.8 162.501 417.01 159.991 417.27 154.371 417.84 148.761 418.41 143.141 418.98 143.861 419.93 144.591 420.88 145.311 421.83 151.691 405.37 158.081 388.91 164.461 372.45 164.901 371.32 163.981 369.98 162.891 369.68 161.621 369.35 160.571 370.13 160.121 371.27zM274.8 322.071C277.54 328.381 280.29 334.691 283.03 341.001 283.51 342.111 285.15 342.371 286.11 341.811 287.26 341.141 287.4 339.851 286.92 338.731 284.18 332.421 281.43 326.111 278.69 319.801 278.21 318.691 276.57 318.431 275.61 318.991 274.46 319.661 274.32 320.951 274.8 322.071zM304.679 323.05C306.489 329.04 308.299 335.02 310.109 341.01 310.949 343.77 315.289 342.6 314.449 339.81 312.639 333.82 310.829 327.84 309.019 321.85 308.189 319.09 303.839 320.27 304.679 323.05zM303.449 427.281C306.439 427.551 309.459 427.601 312.449 427.731 318.079 427.991 323.709 428.251 329.339 428.511 332.349 428.651 335.359 428.791 338.369 428.941 340.199 429.031 340.999 426.991 340.309 425.551 332.009 408.261 326.769 389.491 324.939 370.391 324.819 369.181 323.989 368.141 322.689 368.141 321.559 368.141 320.319 369.171 320.439 370.391 321.919 385.831 325.449 401.041 331.079 415.501 332.699 419.671 334.489 423.781 336.429 427.821 337.079 426.691 337.729 425.561 338.369 424.431 327.929 423.911 317.479 423.471 307.039 422.961 305.849 422.901 304.639 422.871 303.449 422.761 302.239 422.651 301.199 423.871 301.199 425.011 301.199 426.341 302.239 427.171 303.449 427.281z"></path><path fill="#000" d="M289.77 372.36C293.69 390.57 295.99 409.08 299.91 427.29C300.52 430.12 304.86 428.92 304.25 426.09C300.33 407.88 298.03 389.37 294.11 371.16C293.5 368.34 289.16 369.53 289.77 372.36Z"></path></svg>